<?xml version="1.0" encoding="UTF-8"?>
<svg version="1.1" xmlns="http://www.w3.org/2000/svg" width="906" height="201">
<path d="M0 0 C10.87673191 9.05010518 17.39403399 21.15822061 19.37109375 35.06640625 C20.37156876 50.95856702 17.01941187 64.48431564 6.9609375 77.0859375 C-3.65231417 88.51198606 -17.81912307 94.83646558 -33.44140625 95.50390625 C-49.6150666 95.01700286 -63.1535277 88.58058758 -74.1796875 77.00390625 C-84.68689328 64.40196247 -87.50061126 50.11223544 -86.62890625 34.06640625 C-84.64826617 20.06764498 -77.3690906 8.08572529 -66.3671875 -0.75 C-45.94521615 -14.97053502 -20.08999826 -14.77644746 0 0 Z M-62.62890625 5.06640625 C-68.30405342 10.29644383 -74.0215223 15.60389357 -76.62890625 23.06640625 C-76.29890625 24.05640625 -75.96890625 25.04640625 -75.62890625 26.06640625 C-74.88447266 24.90625 -74.88447266 24.90625 -74.125 23.72265625 C-70.01278721 17.41778352 -65.79081706 11.55093648 -60.62890625 6.06640625 C-61.28890625 5.73640625 -61.94890625 5.40640625 -62.62890625 5.06640625 Z " fill="#667BBC" transform="translate(402.62890625,96.93359375)"/>
<path d="M0 0 C2.27237098 1.67393811 4.17899576 3.51911345 6.12109375 5.5625 C9.55524347 4.41778343 9.97648636 3.63102705 12.05859375 0.8125 C16.38906566 -4.32127906 21.73461986 -6.62770903 28.12109375 -8.4375 C30.98828125 -8.5625 30.98828125 -8.5625 33.12109375 -8.4375 C34.24284772 -3.94662176 34.26228068 0.45508688 34.25048828 5.05297852 C34.25311676 6.31727692 34.25311676 6.31727692 34.25579834 7.6071167 C34.26018937 10.38523433 34.2572888 13.163288 34.25390625 15.94140625 C34.25458002 17.87523918 34.25555065 19.80907202 34.25680542 21.74290466 C34.25827861 25.79207161 34.25613973 29.84121648 34.25146484 33.89038086 C34.24576398 39.08122544 34.24905123 44.27201836 34.25503731 49.46286106 C34.25864985 53.45452769 34.2575012 57.44618205 34.25490952 61.43784904 C34.25424237 63.35201969 34.25506127 65.26619145 34.25738907 67.18036079 C34.25992735 69.85407591 34.25605851 72.52770715 34.25048828 75.20141602 C34.25251251 75.99269394 34.25453674 76.78397186 34.25662231 77.59922791 C34.24313277 81.0928752 34.0578396 84.20129068 33.12109375 87.5625 C25.37481971 87.13215144 18.6211192 84.93150845 12.9296875 79.453125 C11.24833049 77.53739701 9.64925964 75.60174124 8.12109375 73.5625 C4.75245412 75.05114713 2.32388465 77.02299559 -0.44140625 79.4375 C-10.12771756 87.3210414 -21.63620861 89.44039879 -33.87890625 88.5625 C-46.42632292 86.50634269 -56.97988428 81.77271728 -64.87890625 71.5625 C-73.58813503 57.03603826 -76.15966459 42.41768337 -73.19140625 25.6875 C-70.57759935 16.45204895 -66.02120304 8.99056711 -58.87890625 2.5625 C-57.61046875 1.325 -57.61046875 1.325 -56.31640625 0.0625 C-40.10211148 -13.31535156 -16.64388297 -10.32875031 0 0 Z M-35.25390625 24.9375 C-40.14199616 31.23357233 -40.73181372 37.78916612 -39.87890625 45.5625 C-38.12993687 52.26513713 -34.6838311 56.82352002 -28.87890625 60.5625 C-23.14813807 63.18910208 -17.71659061 63.34761738 -11.75390625 61.375 C-6.4725546 59.20933936 -3.00480977 55.25135528 0.12109375 50.5625 C2.30124019 44.02206067 2.44997884 34.4054931 -0.37890625 28 C-3.42556656 22.99867232 -8.37843268 19.39599119 -13.87890625 17.5625 C-22.70969349 16.60570067 -29.17762341 18.31816773 -35.25390625 24.9375 Z " fill="#07070A" transform="translate(500.87890625,99.4375)"/>
<path d="M0 0 C1.3303125 0.86625 1.3303125 0.86625 2.6875 1.75 C12.43818865 11.23715653 16.9172073 22.86256153 17.1875 36.25 C17.23046875 39.390625 17.23046875 39.390625 17 42 C15 44 15 44 12.21591187 44.24050903 C11.03010529 44.23606781 9.84429871 44.23162659 8.62255859 44.22705078 C7.96877731 44.22734283 7.31499603 44.22763489 6.6414032 44.22793579 C4.47694704 44.22654065 2.31283364 44.2109712 0.1484375 44.1953125 C-1.35085868 44.19158302 -2.8501573 44.18873574 -4.34945679 44.18673706 C-8.29836743 44.17909548 -12.24713129 44.1594426 -16.19598389 44.1373291 C-20.22438572 44.1168819 -24.25281124 44.10773776 -28.28125 44.09765625 C-36.18756741 44.07619711 -44.09376545 44.04205495 -52 44 C-51.70920528 45.4309366 -51.41085155 46.86033824 -51.109375 48.2890625 C-50.94405273 49.08521973 -50.77873047 49.88137695 -50.60839844 50.70166016 C-49.40634264 55.24265263 -47.21358433 58.08981176 -43.5 60.875 C-37.2088146 62.89716673 -30.76442924 62.93793135 -24.5 60.8125 C-20.74654411 58.09124448 -18.54712928 54.82069391 -16 51 C-13.11083984 50.65942383 -13.11083984 50.65942383 -9.4609375 50.70703125 C-7.50800781 50.7215332 -7.50800781 50.7215332 -5.515625 50.73632812 C-4.13541077 50.76139612 -2.75520244 50.78679098 -1.375 50.8125 C0.01300663 50.82754483 1.40102867 50.84123359 2.7890625 50.85351562 C6.19309509 50.8889743 9.59635622 50.93839702 13 51 C15.07275391 55.70947266 15.07275391 55.70947266 14.41796875 58.32421875 C8.16138052 70.34084058 -0.72760678 79.43512248 -13.4375 84.375 C-30.12919498 89.03451909 -49.32285209 87.71699628 -64.6171875 79.61328125 C-66.9031184 78.20862674 -68.93527357 76.71112171 -71 75 C-71.69609375 74.42636719 -72.3921875 73.85273438 -73.109375 73.26171875 C-82.3400421 64.88124467 -86.42337485 53.89051137 -87.21484375 41.6875 C-87.61091982 27.238645 -84.24377399 15.41002559 -74.25 4.75 C-54.5082268 -13.7953021 -21.92134284 -15.55432513 0 0 Z M-49.8125 18.875 C-51.42785104 21.48478939 -51.42785104 21.48478939 -52 27 C-40.78 27 -29.56 27 -18 27 C-18.9869992 19.54893245 -18.9869992 19.54893245 -24 15 C-32.48159743 9.56796569 -43.30013614 12.13807187 -49.8125 18.875 Z " fill="#070709" transform="translate(867,101)"/>
<path d="M0 0 C10.82373496 8.62020585 16.09612056 18.22216257 18.3984375 31.91015625 C19.16674482 40.75769527 19.16674482 40.75769527 16.3984375 44.91015625 C13.5763855 45.2709198 13.5763855 45.2709198 9.92919922 45.25073242 C8.93389694 45.25138954 8.93389694 45.25138954 7.91848755 45.25205994 C5.7214025 45.24996693 3.52507701 45.22661324 1.328125 45.203125 C-0.1935891 45.19753083 -1.7153086 45.19325989 -3.23703003 45.19026184 C-7.24520749 45.17879886 -11.25305962 45.14931955 -15.2611084 45.1161499 C-19.34980874 45.08548009 -23.43856157 45.07176314 -27.52734375 45.05664062 C-35.55223275 45.02445092 -43.57685718 44.97323741 -51.6015625 44.91015625 C-51.01006274 46.8472568 -50.40447776 48.78006018 -49.79296875 50.7109375 C-49.45724854 51.78770752 -49.12152832 52.86447754 -48.77563477 53.97387695 C-47.11407845 58.12932253 -45.36924719 59.58541464 -41.6015625 61.91015625 C-34.80545205 64.1755264 -27.83549002 63.63181636 -21.453125 60.46875 C-19.53589842 59.07144765 -19.53589842 59.07144765 -18.78540039 57.21118164 C-17.59742181 54.88736239 -16.6681613 53.53364885 -14.6015625 51.91015625 C-9.66337079 51.01015843 -4.78045522 51.25159779 0.2109375 51.47265625 C1.58520751 51.5077943 2.95956339 51.53972901 4.33398438 51.56835938 C7.69098562 51.65081204 11.04361814 51.76586635 14.3984375 51.91015625 C15.46435547 53.71191406 15.46435547 53.71191406 16.3984375 55.91015625 C15.57513061 58.38617548 14.73324213 60.38328872 13.5234375 62.66015625 C13.19609619 63.28414307 12.86875488 63.90812988 12.53149414 64.55102539 C6.15298376 76.21237901 -3.79869642 82.13030381 -16.3125 86.08203125 C-31.99727083 89.6844738 -50.22516463 87.92756612 -64.1640625 79.91015625 C-65.65562316 78.92873849 -67.13699842 77.93142315 -68.6015625 76.91015625 C-69.931875 76.04390625 -69.931875 76.04390625 -71.2890625 75.16015625 C-81.43803409 65.28548119 -85.65161 53.25763879 -85.9140625 39.34765625 C-85.93789814 27.88403546 -82.90429185 17.86794342 -75.6015625 8.91015625 C-75.04984375 8.22308594 -74.498125 7.53601563 -73.9296875 6.828125 C-56.31851268 -12.85273917 -21.12752484 -14.94153784 0 0 Z M-46.6015625 17.91015625 C-49.56944623 21.65906202 -50.6015625 23.06785242 -50.6015625 27.91015625 C-39.3815625 27.91015625 -28.1615625 27.91015625 -16.6015625 27.91015625 C-17.12186648 21.23436539 -17.12186648 21.23436539 -21.0390625 17.53515625 C-21.65652344 17.05304688 -22.27398437 16.5709375 -22.91015625 16.07421875 C-29.50620313 11.53467609 -40.9913197 12.29991345 -46.6015625 17.91015625 Z " fill="#070709" transform="translate(221.6015625,100.08984375)"/>
<path d="M0 0 C1.13308594 0.01184326 1.13308594 0.01184326 2.2890625 0.02392578 C14.91486003 0.21579899 14.91486003 0.21579899 18.875 1.1875 C20.20983061 3.85716122 20.00213954 5.89424312 20.00439453 8.88378906 C20.00754669 10.07973694 20.01069885 11.27568481 20.01394653 12.50787354 C20.0119223 13.80980652 20.00989807 15.1117395 20.0078125 16.453125 C20.00848673 17.80678322 20.00945775 19.16044132 20.01071167 20.51409912 C20.01218906 23.36227563 20.01003678 26.21042087 20.00537109 29.05859375 C19.99973886 32.66905407 20.00291055 36.27943898 20.00894356 39.88989639 C20.01260422 42.69387348 20.0113846 45.49783354 20.00881577 48.30181122 C20.00784237 50.26779734 20.01083173 52.23378417 20.01394653 54.19976807 C19.97061325 71.16066249 19.71715895 88.17382517 8.875 102.1875 C6.83592233 104.20038768 4.75662761 106.03367698 2.51171875 107.8125 C0.74898179 109.10856005 0.74898179 109.10856005 -0.125 111.1875 C1.04557953 111.18083817 1.04557953 111.18083817 2.23980713 111.17404175 C9.59662594 111.13395647 16.95339174 111.10351127 24.31029129 111.08387566 C28.09248771 111.07344142 31.87459383 111.05928884 35.65673828 111.03662109 C39.30717608 111.01487979 42.95752705 111.00292866 46.6080246 110.99774551 C48.00027584 110.99405206 49.39252238 110.98683966 50.78473663 110.97603989 C52.73567567 110.96150874 54.68670218 110.96068294 56.63769531 110.96044922 C58.30315399 110.95378738 58.30315399 110.95378738 60.0022583 110.94699097 C62.83213987 111.1839117 64.47665414 111.71913704 66.875 113.1875 C66.90386537 117.49998609 66.92175255 121.81244762 66.9375 126.125 C66.94587891 127.35669922 66.95425781 128.58839844 66.96289062 129.85742188 C66.96611328 131.02724609 66.96933594 132.19707031 66.97265625 133.40234375 C66.97789307 134.48636475 66.98312988 135.57038574 66.98852539 136.68725586 C66.875 139.1875 66.875 139.1875 65.875 140.1875 C63.56610671 140.43741663 61.28969192 140.61402134 58.97265625 140.7421875 C57.85673851 140.80525589 57.85673851 140.80525589 56.71827698 140.86959839 C46.42447043 141.38503568 36.11915936 141.33670966 25.81518555 141.31787109 C22.28755492 141.31246175 18.7600489 141.31787366 15.23242188 141.32421875 C12.96614556 141.32355869 10.69986931 141.32227903 8.43359375 141.3203125 C7.39077744 141.32233673 6.34796112 141.32436096 5.27354431 141.32644653 C-10.03501332 141.27748668 -10.03501332 141.27748668 -12.125 139.1875 C-12.22134459 137.41589682 -12.24687481 135.64041592 -12.24525452 133.86619568 C-12.24662918 132.71208191 -12.24800385 131.55796814 -12.24942017 130.36888123 C-12.24582489 129.09142532 -12.24222961 127.81396942 -12.23852539 126.49780273 C-12.23824352 125.14791872 -12.23840125 123.79803456 -12.2389679 122.44815063 C-12.23925587 118.77269392 -12.23335916 115.09726957 -12.22639394 111.4218204 C-12.22016038 107.58476851 -12.2195566 103.74771596 -12.21836853 99.91065979 C-12.21525522 92.63978782 -12.20704183 85.36893081 -12.19701904 78.09806544 C-12.1858579 69.82250648 -12.18034745 61.54694682 -12.17532361 53.27138221 C-12.16485922 36.24341281 -12.14725978 19.21545798 -12.125 2.1875 C-8.0884544 -0.06637754 -4.53285926 -0.08023636 0 0 Z " fill="#020203" transform="translate(63.125,43.8125)"/>
<path d="M0 0 C1.73590935 0.02433863 3.47182573 0.04818023 5.20774841 0.07154846 C9.75005174 0.13401732 14.29222863 0.20318687 18.83441162 0.27380371 C23.48004457 0.34482572 28.1257663 0.40943916 32.77148438 0.47460938 C41.86728511 0.60314134 50.96296507 0.73876003 60.05859375 0.87890625 C61.03531351 4.61177015 61.25142141 5.49658504 59.43481445 9.09838867 C58.63333406 10.32057763 57.81531815 11.53202307 56.984375 12.734375 C56.548974 13.38935471 56.113573 14.04433441 55.66497803 14.71916199 C54.2474438 16.84450558 52.80956987 18.95519408 51.37109375 21.06640625 C50.39564841 22.52135679 49.42161061 23.97725195 48.44897461 25.43408203 C46.08444239 28.96954778 43.70468953 32.4944109 41.3190918 36.01568604 C39.05876102 39.35682092 36.81879177 42.71149914 34.58081055 46.06762695 C33.65408264 47.45562636 32.72367855 48.84118384 31.78833008 50.22338867 C28.33690345 55.34790927 25.25309287 60.55474106 22.05859375 65.87890625 C36.24859375 65.87890625 50.43859375 65.87890625 65.05859375 65.87890625 C66.39417271 71.22122209 64.75014832 73.32607327 62.05859375 77.87890625 C57.95216643 84.51236577 50.48030388 88.4173248 43.10484314 90.45375061 C39.29863499 91.24457839 35.47699572 91.24017727 31.6015625 91.29296875 C30.69972733 91.3123349 29.79789215 91.33170105 28.86872864 91.35165405 C25.9946116 91.41103427 23.12044583 91.45747162 20.24609375 91.50390625 C18.35870745 91.54216299 16.47133718 91.58121895 14.58398438 91.62109375 C5.7310556 91.79963214 -3.12180888 91.91376382 -11.9765625 91.93359375 C-13.06527397 91.93777817 -13.06527397 91.93777817 -14.17597961 91.94204712 C-19.1756573 91.93930483 -23.99877874 91.61114736 -28.94140625 90.87890625 C-29.69140625 89.25390625 -29.69140625 89.25390625 -29.94140625 86.87890625 C-28.6955782 84.72985287 -27.41551177 82.86251059 -25.94140625 80.87890625 C-24.9983701 79.48941836 -24.06127266 78.09588859 -23.12890625 76.69921875 C-17.36244146 68.18699118 -11.48509231 59.80098894 -5.26953125 51.61035156 C-1.92656428 47.2043211 1.34687459 42.75656928 4.55859375 38.25390625 C4.9558667 37.69791748 5.35313965 37.14192871 5.76245117 36.5690918 C8.26310194 33.04975657 10.66945283 29.47450079 13.05859375 25.87890625 C11.8876416 25.8538501 10.71668945 25.82879395 9.51025391 25.80297852 C5.17533997 25.70896922 0.84058871 25.60873284 -3.49414062 25.5065918 C-5.37203167 25.46321836 -7.24996277 25.42154507 -9.12792969 25.3815918 C-11.82369065 25.32394749 -14.51924952 25.26023644 -17.21484375 25.1953125 C-18.05759857 25.17860001 -18.90035339 25.16188751 -19.76864624 25.14466858 C-25.71366284 24.99277796 -25.71366284 24.99277796 -27.94140625 23.87890625 C-27.97028137 20.23308938 -27.9881621 16.58730162 -28.00390625 12.94140625 C-28.01228516 11.90048828 -28.02066406 10.85957031 -28.02929688 9.78710938 C-28.03413086 8.30307617 -28.03413086 8.30307617 -28.0390625 6.7890625 C-28.04429932 5.87261963 -28.04953613 4.95617676 -28.05493164 4.01196289 C-27.94140625 1.87890625 -27.94140625 1.87890625 -26.94140625 0.87890625 C-18.02503888 -0.59819328 -9.00310423 -0.14728719 0 0 Z " fill="#070809" transform="translate(704.94140625,93.12109375)"/>
<path d="M0 0 C0 12.54 0 25.08 0 38 C5.28 38 10.56 38 16 38 C17.93619522 42.84048805 18.27023771 45.46765648 18.25 50.5625 C18.25773437 52.51349609 18.25773437 52.51349609 18.265625 54.50390625 C18.02439575 57.67890894 17.79145016 59.42005946 16 62 C12.99686252 63.50156874 10.20932478 63.09281204 6.875 63.0625 C5.59367187 63.05347656 4.31234375 63.04445313 2.9921875 63.03515625 C2.00476563 63.02355469 1.01734375 63.01195313 0 63 C0.00444122 63.78482758 0.00888245 64.56965515 0.01345825 65.37826538 C0.05348917 72.76513958 0.08396099 80.15196138 0.10362434 87.53891563 C0.11407321 91.33686312 0.12825236 95.13472118 0.15087891 98.93261719 C0.17256821 102.59601346 0.18456031 106.25932357 0.18975449 109.92277908 C0.19345731 111.32226544 0.20068777 112.72174695 0.21146011 114.12119675 C0.22592225 116.07733331 0.22681647 118.03355609 0.22705078 119.98974609 C0.231492 121.1044931 0.23593323 122.21924011 0.24050903 123.36776733 C0 126 0 126 -2 128 C-11.38102948 129.94596698 -21.58846651 129.42060883 -31 128 C-32.92330482 123.94567153 -33.2459676 120.71011042 -33.23046875 116.2421875 C-33.23037308 115.58912125 -33.2302774 114.93605499 -33.23017883 114.26319885 C-33.22645855 112.13361255 -33.20751339 110.00449061 -33.1875 107.875 C-33.18063019 106.40242676 -33.1741233 104.92985179 -33.16796875 103.45727539 C-33.08796089 89.96105214 -32.63306983 76.48135668 -32 63 C-32.97582031 63.02320312 -33.95164062 63.04640625 -34.95703125 63.0703125 C-36.86548828 63.09738281 -36.86548828 63.09738281 -38.8125 63.125 C-40.07707031 63.14820312 -41.34164062 63.17140625 -42.64453125 63.1953125 C-46 63 -46 63 -49 61 C-49.35644531 58.76928711 -49.35644531 58.76928711 -49.328125 56.02734375 C-49.32296875 55.04572266 -49.3178125 54.06410156 -49.3125 53.05273438 C-49.291875 52.02470703 -49.27125 50.99667969 -49.25 49.9375 C-49.24484375 48.90560547 -49.2396875 47.87371094 -49.234375 46.81054688 C-49.15383098 39.15383098 -49.15383098 39.15383098 -48 38 C-45.30345146 37.92680379 -42.63308542 37.90757463 -39.9375 37.9375 C-38.79958008 37.94426758 -38.79958008 37.94426758 -37.63867188 37.95117188 C-35.75908129 37.9629932 -33.87953101 37.98092922 -32 38 C-32.33 37.01 -32.66 36.02 -33 35 C-31.0562733 23.06953958 -27.59451242 13.04897333 -17.86328125 5.28125 C-12.23338197 1.40995657 -6.82796051 -1.70699013 0 0 Z " fill="#070709" transform="translate(296,56)"/>
<path d="M0 0 C10.74898572 1.00771741 19.88091563 8.43597286 27 16 C27.185625 15.319375 27.37125 14.63875 27.5625 13.9375 C30.84856006 7.22250769 36.20126212 3.14337565 43.171875 0.65234375 C48.9398689 -0.67811893 55.71339073 -1.27259282 61.3203125 0.8984375 C63 2 63 2 64 4 C64.09677483 5.87432763 64.13075828 7.75208308 64.1328125 9.62890625 C64.13410156 10.74587891 64.13539063 11.86285156 64.13671875 13.01367188 C64.13285156 14.18478516 64.12898437 15.35589844 64.125 16.5625 C64.12886719 17.73748047 64.13273438 18.91246094 64.13671875 20.12304688 C64.13542969 21.23873047 64.13414062 22.35441406 64.1328125 23.50390625 C64.13168457 24.53330322 64.13055664 25.5627002 64.12939453 26.62329102 C64 29 64 29 63 30 C61.09069666 29.99578055 59.18108741 29.98460381 57.27246094 29.93359375 C47.20715728 29.51510992 47.20715728 29.51510992 38 33 C33.38922584 38.39285484 31.92002383 43.75680023 31.81054688 50.77441406 C31.78547058 52.15043793 31.78547058 52.15043793 31.7598877 53.55426025 C31.74631226 54.53151062 31.73273682 55.50876099 31.71875 56.515625 C31.69113586 58.03298248 31.69113586 58.03298248 31.66296387 59.58099365 C31.58436483 63.90252246 31.51626084 68.22419957 31.44775391 72.54589844 C31.39619926 75.7025565 31.3389137 78.8590736 31.28125 82.015625 C31.26767456 83.00097229 31.25409912 83.98631958 31.2401123 85.00152588 C31.21503601 86.35863678 31.21503601 86.35863678 31.18945312 87.74316406 C31.17066101 88.9429892 31.17066101 88.9429892 31.15148926 90.16705322 C31 92 31 92 30 93 C24.63454988 93.98549084 19.32058321 94.10445063 13.875 94.125 C12.85394165 94.13188843 12.85394165 94.13188843 11.81225586 94.13891602 C7.77981773 94.12665638 3.92862408 93.94334742 0 93 C-1.63458357 89.73083286 -1.13812606 86.11940711 -1.12939453 82.52709961 C-1.13114685 81.6505925 -1.13289917 80.77408539 -1.13470459 79.87101746 C-1.13911713 76.96477293 -1.13618746 74.05858893 -1.1328125 71.15234375 C-1.13348565 69.13977547 -1.13445577 67.12720728 -1.13571167 65.11463928 C-1.13718778 60.89371976 -1.13503662 56.67282137 -1.13037109 52.4519043 C-1.12467021 47.02863097 -1.12795564 41.60540709 -1.13394356 36.18213558 C-1.13754838 32.02588017 -1.13641101 27.86963657 -1.13381577 23.71338081 C-1.13314647 21.71299801 -1.13397502 19.71261416 -1.13629532 17.71223259 C-1.13882095 14.92262787 -1.13498269 12.13310449 -1.12939453 9.34350586 C-1.13141876 8.50867676 -1.13344299 7.67384766 -1.13552856 6.8137207 C-1.11426321 1.11426321 -1.11426321 1.11426321 0 0 Z " fill="#040406" transform="translate(554,91)"/>
<path d="M0 0 C5.50534854 1.9603615 8.02703427 8.96899878 10.6328125 13.9375 C16.18263967 26.79870357 16.4000824 41.81469253 11.6328125 54.9375 C5.79881012 68.76624638 -3.31746933 78.39587516 -16.88671875 84.56640625 C-31.59332745 90.35991877 -44.4452062 90.17862555 -59.3671875 84.9375 C-69.88375252 80.15951139 -69.88375252 80.15951139 -73.3671875 75.9375 C-73.8671875 73.0625 -73.8671875 73.0625 -73.3671875 69.9375 C-71.34986148 67.49225634 -69.15615228 65.59153493 -66.72265625 63.57421875 C-62.74057606 60.23933895 -59.29860286 56.74177006 -55.9453125 52.76953125 C-54.47669231 51.06462316 -53.05086229 49.43153011 -51.3671875 47.9375 C-50.7071875 47.9375 -50.0471875 47.9375 -49.3671875 47.9375 C-49.3671875 47.2775 -49.3671875 46.6175 -49.3671875 45.9375 C-48.7071875 45.9375 -48.0471875 45.9375 -47.3671875 45.9375 C-47.0371875 45.2775 -46.7071875 44.6175 -46.3671875 43.9375 C-46.3671875 49.8775 -46.3671875 55.8175 -46.3671875 61.9375 C-45.7071875 61.9375 -45.0471875 61.9375 -44.3671875 61.9375 C-43.7071875 62.9275 -43.0471875 63.9175 -42.3671875 64.9375 C-40.4651935 65.41308206 -40.4651935 65.41308206 -38.3671875 65.3125 C-37.3153125 65.32410156 -37.3153125 65.32410156 -36.2421875 65.3359375 C-33.95660156 65.078414 -33.95660156 65.078414 -32.3671875 61.9375 C-32.00285377 59.81412229 -32.00285377 59.81412229 -31.953125 57.48828125 C-31.91445313 56.64072266 -31.87578125 55.79316406 -31.8359375 54.91992188 C-31.805 54.03884766 -31.7740625 53.15777344 -31.7421875 52.25 C-31.70351563 51.35732422 -31.66484375 50.46464844 -31.625 49.54492188 C-31.53078532 47.3426538 -31.44517162 45.14039278 -31.3671875 42.9375 C-30.53525879 42.92348145 -30.53525879 42.92348145 -29.68652344 42.90917969 C-27.16252269 42.85534278 -24.64034936 42.77172746 -22.1171875 42.6875 C-21.24449219 42.67332031 -20.37179687 42.65914062 -19.47265625 42.64453125 C-14.28621903 42.46472472 -14.28621903 42.46472472 -9.7578125 40.1171875 C-8.04223481 37.85908282 -8.04223481 37.85908282 -8.3671875 34.3125 C-8.99377889 30.99020602 -8.99377889 30.99020602 -10.8828125 29.765625 C-14.58421662 28.53182363 -18.23827358 28.46688463 -22.1171875 28.3125 C-22.90996094 28.27382812 -23.70273437 28.23515625 -24.51953125 28.1953125 C-26.46838166 28.101392 -28.41775201 28.01837178 -30.3671875 27.9375 C-28.9921875 25.9375 -28.9921875 25.9375 -27.3671875 23.9375 C-26.7071875 23.9375 -26.0471875 23.9375 -25.3671875 23.9375 C-24.7071875 22.6175 -24.0471875 21.2975 -23.3671875 19.9375 C-22.7071875 19.9375 -22.0471875 19.9375 -21.3671875 19.9375 C-21.1196875 19.36 -20.8721875 18.7825 -20.6171875 18.1875 C-19.18418762 15.60810021 -17.58294074 13.87628408 -15.3671875 11.9375 C-14.7071875 11.9375 -14.0471875 11.9375 -13.3671875 11.9375 C-13.109375 11.35355469 -12.8515625 10.76960938 -12.5859375 10.16796875 C-11.27020386 7.76000751 -9.82560158 6.16277307 -7.8671875 4.25 C-7.25875 3.64800781 -6.6503125 3.04601562 -6.0234375 2.42578125 C-3.87670345 0.49675843 -2.91488009 -0.07696053 0 0 Z " fill="#5666B2" transform="translate(407.3671875,103.0625)"/>
<path d="M0 0 C10.51716089 2.06411569 17.95963726 6.71063596 24.71875 15.046875 C29.49605955 22.32935907 31.12262641 30.37298372 31.12939453 38.97363281 C31.13254669 40.12792786 31.13569885 41.2822229 31.13894653 42.47149658 C31.1369223 43.70293396 31.13489807 44.93437134 31.1328125 46.203125 C31.13376923 47.47726257 31.13472595 48.75140015 31.13571167 50.06414795 C31.13639094 52.7504825 31.13505908 55.43672547 31.13037109 58.12304688 C31.1246512 61.56866716 31.12797218 65.01420993 31.13394356 68.45982742 C31.13841809 71.74926277 31.13528992 75.03868865 31.1328125 78.328125 C31.13483673 79.5676593 31.13686096 80.8071936 31.13894653 82.08428955 C31.13421829 83.79681915 31.13421829 83.79681915 31.12939453 85.54394531 C31.12859894 86.55177063 31.12780334 87.55959595 31.12698364 88.59796143 C31 91 31 91 30 93 C20.66746632 95.113779 9.35309435 94.91313293 0 93 C-1.84234926 91.15765074 -1.12649828 88.56354418 -1.13552856 86.11170959 C-1.13249222 84.84308327 -1.13249222 84.84308327 -1.12939453 83.54882812 C-1.13114685 82.66271347 -1.13289917 81.77659882 -1.13470459 80.8636322 C-1.1391244 77.91948518 -1.13618467 74.97539769 -1.1328125 72.03125 C-1.1334855 69.99483224 -1.1344555 67.95841456 -1.13571167 65.92199707 C-1.13718882 61.64802284 -1.13503355 57.37406947 -1.13037109 53.10009766 C-1.1246738 47.60841461 -1.12795271 42.11678043 -1.13394356 36.62509918 C-1.13754872 32.41822946 -1.13641079 28.21137141 -1.13381577 24.00450134 C-1.13314637 21.97899876 -1.13397535 19.95349514 -1.13629532 17.92799377 C-1.1388211 15.1023577 -1.1349823 12.27680193 -1.12939453 9.45117188 C-1.13141876 8.60542099 -1.13344299 7.7596701 -1.13552856 6.88829041 C-1.11426241 1.11426241 -1.11426241 1.11426241 0 0 Z " fill="#010101" transform="translate(631,91)"/>
<path d="M0 0 C2.171875 1.390625 2.171875 1.390625 4 4 C4.49543666 7.42854326 4.37580737 10.79513597 4.25 14.25 C4.23195313 15.18585938 4.21390625 16.12171875 4.1953125 17.0859375 C4.14825673 19.39167015 4.08253713 21.69530945 4 24 C4.58491211 23.97905273 5.16982422 23.95810547 5.77246094 23.93652344 C8.43146465 23.85319885 11.09019355 23.80129103 13.75 23.75 C14.67039062 23.71648437 15.59078125 23.68296875 16.5390625 23.6484375 C23.36997003 23.54943884 23.36997003 23.54943884 26.60546875 25.86328125 C28 28 28 28 28.5625 30.4375 C27.71434746 34.301306 26.12726846 35.60295666 23 38 C19.70528789 38.60521113 16.52304116 38.47417798 13.1875 38.3125 C12.30384766 38.28994141 11.42019531 38.26738281 10.50976562 38.24414062 C8.3391109 38.18547428 6.1693331 38.09579979 4 38 C4.01571045 38.55461914 4.0314209 39.10923828 4.04760742 39.68066406 C4.11012862 42.20367152 4.14904342 44.72651576 4.1875 47.25 C4.21263672 48.12269531 4.23777344 48.99539062 4.26367188 49.89453125 C4.33714402 56.3110989 4.33714402 56.3110989 2.73828125 59.578125 C0.66720233 61.27222101 -0.34375793 61.54024609 -3 61.5 C-3.680625 61.5103125 -4.36125 61.520625 -5.0625 61.53125 C-7 61 -7 61 -8.73828125 59.578125 C-10.70456541 55.56033074 -10.31436499 51.65449206 -10.1875 47.25 C-10.16719727 45.91775391 -10.16719727 45.91775391 -10.14648438 44.55859375 C-10.11121309 42.37177422 -10.06192752 40.18620034 -10 38 C-10.87736816 38.02356567 -10.87736816 38.02356567 -11.77246094 38.04760742 C-14.43154164 38.11010267 -17.09046764 38.14903569 -19.75 38.1875 C-20.67039062 38.21263672 -21.59078125 38.23777344 -22.5390625 38.26367188 C-23.42851562 38.27333984 -24.31796875 38.28300781 -25.234375 38.29296875 C-26.05131836 38.3086792 -26.86826172 38.32438965 -27.70996094 38.34057617 C-30.55199074 37.91790756 -31.91503381 36.94345265 -34 35 C-34.52799676 32.23857697 -34.18598981 29.83634455 -34 27 C-33.34 27 -32.68 27 -32 27 C-32 26.34 -32 25.68 -32 25 C-29.59940183 23.79970092 -28.10639351 23.88540257 -25.4296875 23.90234375 C-24.53378906 23.90556641 -23.63789063 23.90878906 -22.71484375 23.91210938 C-21.77769531 23.92048828 -20.84054687 23.92886719 -19.875 23.9375 C-18.93011719 23.94201172 -17.98523438 23.94652344 -17.01171875 23.95117188 C-14.67441613 23.96297643 -12.33723939 23.97944241 -10 24 C-10.02094727 23.41508789 -10.04189453 22.83017578 -10.06347656 22.22753906 C-10.14680115 19.56853535 -10.19870897 16.90980645 -10.25 14.25 C-10.28351563 13.32960938 -10.31703125 12.40921875 -10.3515625 11.4609375 C-10.45037546 4.6428436 -10.45037546 4.6428436 -8.171875 1.390625 C-5.19755548 -0.51379541 -3.46624892 -0.57770815 0 0 Z " fill="#ECCC49" transform="translate(372,108)"/>
<path d="M0 0 C3.87549549 2.59767485 7.37749655 5.67839812 8.80078125 10.20703125 C9.32843981 15.57155994 9.01119045 19.10987705 6.0703125 23.671875 C2.87565447 27.53495379 -1.52352939 29.67026621 -6.19921875 31.20703125 C-14.79443308 31.99340192 -23.90259374 32.4699161 -31.19921875 27.20703125 C-34.89972414 24.09703204 -37.37353978 21.03124544 -38.26171875 16.20703125 C-38.47632095 11.93974908 -37.36592161 8.9113942 -35.19921875 5.20703125 C-25.89816505 -4.09402245 -11.83497508 -6.30752909 0 0 Z " fill="#0A0A0B" transform="translate(659.19921875,44.79296875)"/>
<path d="M0 0 C2 1 2 1 3 3 C2.67 3.66 2.34 4.32 2 5 C3.17755859 4.45859375 3.17755859 4.45859375 4.37890625 3.90625 C14.81370826 -0.7029877 14.81370826 -0.7029877 21 0 C20.67 0.99 20.34 1.98 20 3 C17.77734375 3.9921875 17.77734375 3.9921875 14.9375 4.875 C9.75708863 6.61983829 5.46773181 8.87642819 1 12 C1 11.01 1 10.02 1 9 C-4.55133607 14.05543508 -8.99800113 19.04344493 -12 26 C-12 26.66 -12 27.32 -12 28 C-11.01 27.01 -10.02 26.02 -9 25 C-9.20496094 25.66644531 -9.40992188 26.33289063 -9.62109375 27.01953125 C-11.57215385 33.69421053 -12.61078128 40.06116975 -13 47 C-15.31 47.66 -17.62 48.32 -20 49 C-20.33 51.97 -20.66 54.94 -21 58 C-21.33 58 -21.66 58 -22 58 C-24.96893696 42.34125184 -22.98563059 27.2940755 -14 14 C-9.78052821 8.72379982 -5.35206203 4.12927106 0 0 Z " fill="#798AC1" transform="translate(339,94)"/>
<path d="M0 0 C1.13308594 0.01184326 1.13308594 0.01184326 2.2890625 0.02392578 C14.91486003 0.21579899 14.91486003 0.21579899 18.875 1.1875 C20.20983061 3.85716122 20.00213954 5.89424312 20.00439453 8.88378906 C20.00754669 10.07973694 20.01069885 11.27568481 20.01394653 12.50787354 C20.0119223 13.80980652 20.00989807 15.1117395 20.0078125 16.453125 C20.00848673 17.80678322 20.00945775 19.16044132 20.01071167 20.51409912 C20.01218906 23.36227563 20.01003678 26.21042087 20.00537109 29.05859375 C19.99973886 32.66905407 20.00291055 36.27943898 20.00894356 39.88989639 C20.01260422 42.69387348 20.0113846 45.49783354 20.00881577 48.30181122 C20.00784237 50.26779734 20.01083173 52.23378417 20.01394653 54.19976807 C19.95590433 76.91781889 19.95590433 76.91781889 16.875 87.1875 C16.545 87.1875 16.215 87.1875 15.875 87.1875 C15.84811849 85.54175434 15.82865877 83.89588587 15.8125 82.25 C15.80089844 81.33347656 15.78929688 80.41695313 15.77734375 79.47265625 C15.875 77.1875 15.875 77.1875 16.875 76.1875 C16.9991622 73.91829775 17.05303748 71.6452355 17.08032227 69.37280273 C17.09022186 68.66064606 17.10012146 67.94848938 17.11032104 67.2147522 C17.14202212 64.85023372 17.16672724 62.48569511 17.19140625 60.12109375 C17.21196836 58.48583948 17.23296463 56.85059062 17.25437927 55.21534729 C17.30967672 50.90321214 17.35905201 46.59102842 17.40722656 42.27880859 C17.45738572 37.88179176 17.51310087 33.4848458 17.56835938 29.08789062 C17.67603473 20.45448693 17.77745871 11.8210241 17.875 3.1875 C13.39584672 3.15863662 8.91671709 3.14074813 4.4375 3.125 C3.15810547 3.11662109 1.87871094 3.10824219 0.56054688 3.09960938 C-0.65439453 3.09638672 -1.86933594 3.09316406 -3.12109375 3.08984375 C-4.24700928 3.08460693 -5.3729248 3.07937012 -6.53295898 3.07397461 C-9.05470871 2.89204552 -9.05470871 2.89204552 -10.125 4.1875 C-10.23349442 5.93338625 -10.27187036 7.68365931 -10.28321838 9.43287659 C-10.2930072 10.57016205 -10.30279602 11.70744751 -10.31288147 12.87919617 C-10.31863693 14.13795059 -10.3243924 15.39670502 -10.33032227 16.69360352 C-10.34022186 18.01048157 -10.35012146 19.32735962 -10.36032104 20.68414307 C-10.38743433 24.30584955 -10.40840898 27.92756915 -10.42832303 31.54932141 C-10.45014311 35.33034503 -10.47755119 39.11132792 -10.50437927 42.89231873 C-10.55436013 50.05691336 -10.59927888 57.22153054 -10.64240164 64.38616937 C-10.69172802 72.54084054 -10.74666315 80.69547086 -10.80208123 88.85010254 C-10.91598403 105.6291974 -11.0228049 122.40832966 -11.125 139.1875 C-11.455 139.1875 -11.785 139.1875 -12.125 139.1875 C-12.125 93.9775 -12.125 48.7675 -12.125 2.1875 C-7.78909189 0.01954595 -4.69192668 -0.08305202 0 0 Z " fill="#5E5E5E" transform="translate(63.125,43.8125)"/>
<path d="M0 0 C2 1 2 1 3 3 C2.67 3.66 2.34 4.32 2 5 C3.17755859 4.45859375 3.17755859 4.45859375 4.37890625 3.90625 C14.81370826 -0.7029877 14.81370826 -0.7029877 21 0 C20.67 0.99 20.34 1.98 20 3 C17.77734375 3.9921875 17.77734375 3.9921875 14.9375 4.875 C9.75708863 6.61983829 5.46773181 8.87642819 1 12 C1 11.01 1 10.02 1 9 C-4.63798962 14.13434787 -8.6861312 19.11734942 -12 26 C-12.33 26 -12.66 26 -13 26 C-13.33 23.69 -13.66 21.38 -14 19 C-14.66 19 -15.32 19 -16 19 C-14.60501079 14.82995203 -12.6536642 12.162892 -9.6875 8.9375 C-8.92824219 8.10089844 -8.16898437 7.26429687 -7.38671875 6.40234375 C-5.05286276 4.05320884 -2.62618539 2.01263411 0 0 Z " fill="#8494C7" transform="translate(339,94)"/>
<path d="M0 0 C1.67542976 0.28604898 3.34385343 0.61781233 5 1 C3.68 1.33 2.36 1.66 1 2 C1.01474869 3.09802948 1.02949738 4.19605896 1.04469299 5.32736206 C1.18278054 15.65741064 1.31551602 25.98751585 1.4429636 36.31770134 C1.50866448 41.62899539 1.57627428 46.94025106 1.64819336 52.25146484 C1.71748373 57.37367057 1.78182945 62.49591639 1.84269524 67.61822891 C1.86683682 69.57594192 1.89278328 71.5336335 1.92053413 73.49129868 C1.95899327 76.22577308 1.99112948 78.96025218 2.02172852 81.69482422 C2.04114754 82.91833588 2.04114754 82.91833588 2.06095886 84.16656494 C2.11405216 89.77189568 2.11405216 89.77189568 1 92 C10.57 92 20.14 92 30 92 C30 92.33 30 92.66 30 93 C24.61936079 93.8967732 19.3246329 94.11002848 13.875 94.125 C13.194375 94.12951172 12.51375 94.13402344 11.8125 94.13867188 C7.77997458 94.1269038 3.92868618 93.94336233 0 93 C-1.63458357 89.73083286 -1.13812606 86.11940711 -1.12939453 82.52709961 C-1.13114685 81.6505925 -1.13289917 80.77408539 -1.13470459 79.87101746 C-1.13911713 76.96477293 -1.13618746 74.05858893 -1.1328125 71.15234375 C-1.13348565 69.13977547 -1.13445577 67.12720728 -1.13571167 65.11463928 C-1.13718778 60.89371976 -1.13503662 56.67282137 -1.13037109 52.4519043 C-1.12467021 47.02863097 -1.12795564 41.60540709 -1.13394356 36.18213558 C-1.13754838 32.02588017 -1.13641101 27.86963657 -1.13381577 23.71338081 C-1.13314647 21.71299801 -1.13397502 19.71261416 -1.13629532 17.71223259 C-1.13882095 14.92262787 -1.13498269 12.13310449 -1.12939453 9.34350586 C-1.13141876 8.50867676 -1.13344299 7.67384766 -1.13552856 6.8137207 C-1.11426321 1.11426321 -1.11426321 1.11426321 0 0 Z " fill="#696A6D" transform="translate(554,91)"/>
<path d="M0 0 C0.89589844 0.00322266 1.79179687 0.00644531 2.71484375 0.00976562 C4.12056641 0.02233398 4.12056641 0.02233398 5.5546875 0.03515625 C6.49957031 0.03966797 7.44445312 0.04417969 8.41796875 0.04882812 C10.75527137 0.06063268 13.09244811 0.07709866 15.4296875 0.09765625 C14.82253906 0.54367188 14.21539062 0.9896875 13.58984375 1.44921875 C9.10686151 4.87022871 6.34896963 8.23218604 3.4296875 13.09765625 C7.3896875 13.09765625 11.3496875 13.09765625 15.4296875 13.09765625 C15.4296875 13.42765625 15.4296875 13.75765625 15.4296875 14.09765625 C12.1798575 14.18494507 8.93033 14.23814283 5.6796875 14.28515625 C4.29910156 14.32286133 4.29910156 14.32286133 2.890625 14.36132812 C2.00117188 14.37099609 1.11171875 14.38066406 0.1953125 14.390625 C-0.62163086 14.40633545 -1.43857422 14.4220459 -2.28027344 14.43823242 C-5.12230324 14.01556381 -6.48534631 13.0411089 -8.5703125 11.09765625 C-9.09830926 8.33623322 -8.75630231 5.9340008 -8.5703125 3.09765625 C-7.9103125 3.09765625 -7.2503125 3.09765625 -6.5703125 3.09765625 C-6.5703125 2.43765625 -6.5703125 1.77765625 -6.5703125 1.09765625 C-4.16971433 -0.10264283 -2.67670601 -0.01694118 0 0 Z " fill="#EACC4F" transform="translate(346.5703125,131.90234375)"/>
<path d="M0 0 C3.13469934 4.70204901 3.12503711 9.43640367 3.12939453 14.97363281 C3.13254669 16.12792786 3.13569885 17.2822229 3.13894653 18.47149658 C3.1369223 19.70293396 3.13489807 20.93437134 3.1328125 22.203125 C3.13424759 24.11433136 3.13424759 24.11433136 3.13571167 26.06414795 C3.13639094 28.7504825 3.13505908 31.43672547 3.13037109 34.12304688 C3.1246512 37.56866716 3.12797218 41.01420993 3.13394356 44.45982742 C3.13841809 47.74926277 3.13528992 51.03868865 3.1328125 54.328125 C3.13483673 55.5676593 3.13686096 56.8071936 3.13894653 58.08428955 C3.13579437 59.22597595 3.13264221 60.36766235 3.12939453 61.54394531 C3.12859894 62.55177063 3.12780334 63.55959595 3.12698364 64.59796143 C3 67 3 67 2 69 C-7.42568173 71.13487663 -18.54023952 70.75995544 -28 69 C-28 68.67 -28 68.34 -28 68 C-21.31626249 67.0058514 -14.9245582 66.96677626 -8.18359375 67.21484375 C-6.12150212 67.25283874 -4.05783664 67.13774566 -2 67 C0.3639196 63.45412059 0.24355585 61.98496318 0.22705078 57.78442383 C0.22689972 56.5033223 0.22674866 55.22222076 0.22659302 53.90229797 C0.21637973 52.50387416 0.20594774 51.10545192 0.1953125 49.70703125 C0.19158178 48.27642515 0.18873509 46.84581648 0.18673706 45.41520691 C0.17910522 41.65207856 0.15946069 37.88910489 0.1373291 34.1260376 C0.11686094 30.28521822 0.10773327 26.44437383 0.09765625 22.60351562 C0.07621429 15.06893994 0.04208387 7.53449166 0 0 Z " fill="#323754" transform="translate(659,115)"/>
<path d="M0 0 C0.66 0 1.32 0 2 0 C3.33483061 2.66966122 3.12713954 4.70674312 3.12939453 7.69628906 C3.13254669 8.89223694 3.13569885 10.08818481 3.13894653 11.32037354 C3.1369223 12.62230652 3.13489807 13.9242395 3.1328125 15.265625 C3.13348673 16.61928322 3.13445775 17.97294132 3.13571167 19.32659912 C3.13718906 22.17477563 3.13503678 25.02292087 3.13037109 27.87109375 C3.12473886 31.48155407 3.12791055 35.09193898 3.13394356 38.70239639 C3.13760422 41.50637348 3.1363846 44.31033354 3.13381577 47.11431122 C3.13284237 49.08029734 3.13583173 51.04628417 3.13894653 53.01226807 C3.08090433 75.73031889 3.08090433 75.73031889 0 86 C-0.33 86 -0.66 86 -1 86 C-1.02688151 84.35425434 -1.04634123 82.70838587 -1.0625 81.0625 C-1.07410156 80.14597656 -1.08570312 79.22945313 -1.09765625 78.28515625 C-1 76 -1 76 0 75 C0.09492722 72.65746218 0.12559791 70.34453896 0.11352539 68.00170898 C0.11367142 67.27004517 0.11381744 66.53838135 0.1139679 65.7845459 C0.11326867 63.35503216 0.10547585 60.92559417 0.09765625 58.49609375 C0.0957921 56.81600486 0.09436819 55.13591543 0.09336853 53.45582581 C0.08954307 49.02526357 0.07971256 44.5947339 0.06866455 40.16418457 C0.05845103 35.64657024 0.05387104 31.12895066 0.04882812 26.61132812 C0.03809031 17.74087107 0.02101356 8.87043824 0 0 Z " fill="#38536D" transform="translate(80,45)"/>
<path d="M0 0 C1.3083078 0.0136409 2.6166156 0.0272818 3.96456909 0.04133606 C5.39972501 0.06190806 6.83487512 0.08288872 8.27001953 0.10424805 C9.73731262 0.12347775 11.204608 0.14253364 12.67190552 0.16142273 C15.75040957 0.20243931 18.82881988 0.24766392 21.90722656 0.29541016 C25.85037907 0.35593655 29.79356286 0.40288242 33.73693657 0.44624043 C36.7687975 0.48162644 39.80048227 0.52586227 42.83218765 0.57259178 C44.28578677 0.59362426 45.73943462 0.61153044 47.19311142 0.6262455 C49.22781821 0.64785128 51.26236749 0.68300425 53.296875 0.71875 C55.03322708 0.74325981 55.03322708 0.74325981 56.80465698 0.76826477 C59.66602219 1.04274143 61.35296843 1.56492449 63.77783203 3.0534668 C63.44783203 3.7134668 63.11783203 4.3734668 62.77783203 5.0534668 C62.28283203 4.5584668 62.28283203 4.5584668 61.77783203 4.0534668 C59.67209717 3.94007841 57.56257664 3.89660105 55.45385742 3.87988281 C54.79368118 3.8731958 54.13350494 3.86650879 53.45332336 3.85961914 C52.01553783 3.84553976 50.57772955 3.83365497 49.13990974 3.82367134 C46.86666237 3.80730952 44.59358367 3.78407455 42.32041931 3.7587738 C35.85586904 3.68786108 29.39124982 3.62782075 22.92651367 3.57666016 C18.97656768 3.54491824 15.02681463 3.50365478 11.07702446 3.45646477 C9.56873474 3.44041498 8.06040052 3.42810722 6.55204964 3.41955757 C4.4449002 3.40744168 2.33820667 3.38330881 0.23120117 3.35644531 C-1.56963173 3.34098412 -1.56963173 3.34098412 -3.40684509 3.32521057 C-6.22216797 3.0534668 -6.22216797 3.0534668 -8.22216797 1.0534668 C-5.41685234 -0.34919102 -3.13735828 -0.03786915 0 0 Z " fill="#64656E" transform="translate(66.22216796875,153.946533203125)"/>
<path d="M0 0 C2.171875 1.421875 2.171875 1.421875 4 4 C4.49250309 7.26321064 4.37637181 10.45947252 4.25 13.75 C4.23195313 14.63816406 4.21390625 15.52632812 4.1953125 16.44140625 C4.14827374 18.62870848 4.08257009 20.81379816 4 23 C3.67 23 3.34 23 3 23 C2.93941406 21.71222656 2.87882812 20.42445313 2.81640625 19.09765625 C2.73201753 17.41925841 2.6473687 15.74087364 2.5625 14.0625 C2.52318359 13.21236328 2.48386719 12.36222656 2.44335938 11.48632812 C2.38051758 10.27299805 2.38051758 10.27299805 2.31640625 9.03515625 C2.27974854 8.2862915 2.24309082 7.53742676 2.20532227 6.76586914 C2.18228937 4.97538674 2.18228937 4.97538674 1 4 C-1.31 3.67 -3.62 3.34 -6 3 C-5.67 10.59 -5.34 18.18 -5 26 C-6.32 26.33 -7.64 26.66 -9 27 C-10.43255946 22.70232163 -10.26470086 18.56517888 -10.3125 14.0625 C-10.34150391 13.15564453 -10.37050781 12.24878906 -10.40039062 11.31445312 C-10.46406528 4.658003 -10.46406528 4.658003 -8.16796875 1.40234375 C-5.19765778 -0.51899253 -3.47098136 -0.57849689 0 0 Z " fill="#E9CA59" transform="translate(372,108)"/>
<path d="M0 0 C1.75 2 1.75 2 3 4 C-0.03822307 6.78503781 -2.9258462 7.58465457 -6.90625 8.4609375 C-9.00268032 9.00069008 -10.8434525 9.73225389 -12.8125 10.625 C-16 12 -16 12 -19 12 C-19.6875 10.1875 -19.6875 10.1875 -20 8 C-17.90406087 5.38007609 -15.61252886 4.18142045 -12.5625 2.875 C-11.80066406 2.54242188 -11.03882813 2.20984375 -10.25390625 1.8671875 C-6.58669596 0.45623311 -3.98702676 0 0 0 Z " fill="#7387C0" transform="translate(360,87)"/>
<path d="M0 0 C1.67542976 0.28604898 3.34385343 0.61781233 5 1 C3.02 1.99 3.02 1.99 1 3 C0.67 32.37 0.34 61.74 0 92 C-0.33 92 -0.66 92 -1 92 C-1.02312202 80.15234827 -1.04091437 68.30470186 -1.05181217 56.4570322 C-1.05704131 50.95629138 -1.06413951 45.45556595 -1.07543945 39.95483398 C-1.08626725 34.6510344 -1.0922766 29.34724965 -1.09487724 24.04343987 C-1.09673169 22.01514388 -1.10035267 19.98684874 -1.10573006 17.95855904 C-1.11293906 15.12803486 -1.113991 12.29757282 -1.11352539 9.46704102 C-1.11712067 8.61971909 -1.12071594 7.77239716 -1.12442017 6.8993988 C-1.11405216 1.11405216 -1.11405216 1.11405216 0 0 Z " fill="#9E9E9D" transform="translate(631,91)"/>
<path d="M0 0 C23.82791117 -0.81643858 23.82791117 -0.81643858 32 6 C28.28868883 5.5360861 24.73762507 4.9720718 21.125 4 C16.79294486 2.86177375 12.4541049 2.39179626 8 2 C8.33 2.598125 8.66 3.19625 9 3.8125 C10 6 10 6 10 9 C7.69 9 5.38 9 3 9 C3.66666667 6.33333333 4.33333333 3.66666667 5 1 C3.35 1 1.7 1 0 1 C0 0.67 0 0.34 0 0 Z " fill="#8393C0" transform="translate(361,86)"/>
<path d="M0 0 C0.495 0.99 0.495 0.99 1 2 C-1.34852528 3.17426264 -2.73774065 3.11508173 -5.3515625 3.09765625 C-6.11807129 3.09515869 -6.88458008 3.09266113 -7.67431641 3.09008789 C-8.64804199 3.08098389 -9.62176758 3.07187988 -10.625 3.0625 C-13.71875 3.041875 -16.8125 3.02125 -20 3 C-20 10.26 -20 17.52 -20 25 C-20.99 25 -21.98 25 -23 25 C-23 25.66 -23 26.32 -23 27 C-25.64 27 -28.28 27 -31 27 C-31.33 26.34 -31.66 25.68 -32 25 C-28.97265625 24.75585938 -28.97265625 24.75585938 -25.9453125 24.51171875 C-23.60480784 24.12606964 -23.60480784 24.12606964 -22 21 C-21.63566627 18.87662229 -21.63566627 18.87662229 -21.5859375 16.55078125 C-21.52792969 15.27944336 -21.52792969 15.27944336 -21.46875 13.98242188 C-21.4378125 13.10134766 -21.406875 12.22027344 -21.375 11.3125 C-21.33632813 10.41982422 -21.29765625 9.52714844 -21.2578125 8.60742188 C-21.16359782 6.4051538 -21.07798412 4.20289278 -21 2 C-20.15236084 1.96241577 -20.15236084 1.96241577 -19.28759766 1.92407227 C-16.73316258 1.80820044 -14.1791045 1.68543463 -11.625 1.5625 C-10.29082031 1.50352539 -10.29082031 1.50352539 -8.9296875 1.44335938 C-8.07890625 1.40146484 -7.228125 1.35957031 -6.3515625 1.31640625 C-5.56604004 1.27974854 -4.78051758 1.24309082 -3.97119141 1.20532227 C-1.92476504 1.109109 -1.92476504 1.109109 0 0 Z " fill="#6F7183" transform="translate(397,144)"/>
<path d="M0 0 C5.75770141 10.91040577 3.47504238 24.70611225 0 36 C-0.33 36 -0.66 36 -1 36 C-1.02685938 33.85423363 -1.04633088 31.70837355 -1.0625 29.5625 C-1.07410156 28.36753906 -1.08570313 27.17257813 -1.09765625 25.94140625 C-1 23 -1 23 0 22 C0.08700342 20.36527118 0.10701063 18.72685945 0.09765625 17.08984375 C0.09282227 15.60581055 0.09282227 15.60581055 0.08789062 14.09179688 C0.07951172 13.05087891 0.07113281 12.00996094 0.0625 10.9375 C0.05798828 9.89271484 0.05347656 8.84792969 0.04882812 7.77148438 C0.03699913 5.1809334 0.02051689 2.59049441 0 0 Z " fill="#7E8ABB" transform="translate(419,122)"/>
<path d="M0 0 C3.24969769 -0.11638036 6.4988583 -0.18730581 9.75 -0.25 C10.67039062 -0.28351563 11.59078125 -0.31703125 12.5390625 -0.3515625 C19.36997003 -0.45056116 19.36997003 -0.45056116 22.60546875 1.86328125 C24 4 24 4 24.5625 6.4375 C23.71434746 10.301306 22.12726846 11.60295666 19 14 C15.70528789 14.60521113 12.52304116 14.47417798 9.1875 14.3125 C8.30384766 14.28994141 7.42019531 14.26738281 6.50976562 14.24414062 C4.3391109 14.18547428 2.1693331 14.09579979 0 14 C0 13.67 0 13.34 0 13 C5.61 13 11.22 13 17 13 C17 12.34 17 11.68 17 11 C18.32 11 19.64 11 21 11 C21.33 8.36 21.66 5.72 22 3 C19.27498092 2.09166031 17.37766029 1.81640015 14.55078125 1.68359375 C13.70322266 1.64169922 12.85566406 1.59980469 11.98242188 1.55664062 C11.10134766 1.51732422 10.22027344 1.47800781 9.3125 1.4375 C8.41982422 1.39431641 7.52714844 1.35113281 6.60742188 1.30664062 C4.40509892 1.20064647 2.20266527 1.09857949 0 1 C0 0.67 0 0.34 0 0 Z " fill="#D7C570" transform="translate(376,132)"/>
<path d="M0 0 C1 2 1 2 0.51171875 3.8125 C0.23972656 4.534375 -0.03226562 5.25625 -0.3125 6 C-2.0575685 10.92301434 -3.08881704 15.86521605 -4 21 C-4.99 21 -5.98 21 -7 21 C-7.25111884 14.97314783 -6.94871307 9.74357537 -5 4 C-4.01 3.67 -3.02 3.34 -2 3 C-1.34 2.01 -0.68 1.02 0 0 Z " fill="#E2E8F8" transform="translate(329,119)"/>
<path d="M0 0 C-0.33 0.99 -0.66 1.98 -1 3 C-3.22265625 3.9921875 -3.22265625 3.9921875 -6.0625 4.875 C-11.24291137 6.61983829 -15.53226819 8.87642819 -20 12 C-19.09998917 8.03995236 -18.40798144 6.32638515 -15.1875 3.75 C-9.75452211 0.76718861 -6.28155729 -0.24633558 0 0 Z " fill="#E7EDFA" transform="translate(360,94)"/>
<path d="M0 0 C1.98 0 3.96 0 6 0 C5.45276317 3.37462715 4.9451 5.08235 3 8 C2.34 7.67 1.68 7.34 1 7 C0.979375 7.598125 0.95875 8.19625 0.9375 8.8125 C0 11 0 11 -3.25 12.75 C-6.51677203 13.83892401 -8.6240572 14.30690389 -12 14 C-8.63576723 11.03947516 -5.30840713 10.07710178 -1 9 C-1 8.34 -1 7.68 -1 7 C-1.66 6.34 -2.32 5.68 -3 5 C-1.68 4.34 -0.36 3.68 1 3 C0.67 2.01 0.34 1.02 0 0 Z " fill="#7184B6" transform="translate(360,87)"/>
<path d="M0 0 C2 1 2 1 3 3 C2.67 3.66 2.34 4.32 2 5 C2.66 5.33 3.32 5.66 4 6 C0.83047153 9.26008643 -2.39937989 12.22237877 -6 15 C-6 13.68 -6 12.36 -6 11 C-5.34 11 -4.68 11 -4 11 C-4 10.01 -4 9.02 -4 8 C-3.34 8 -2.68 8 -2 8 C-1.67 6.68 -1.34 5.36 -1 4 C-2.32 4.99 -3.64 5.98 -5 7 C-5.66 6.67 -6.32 6.34 -7 6 C-4.69 4.02 -2.38 2.04 0 0 Z " fill="#91A0CC" transform="translate(339,94)"/>
<path d="M0 0 C3.09251454 2.95805738 3.93760994 4.26379733 4.3125 8.6875 C4.23759727 13.27321185 2.91228203 16.47319975 0 20 C-3.0625 22.5 -3.0625 22.5 -6 24 C-6.99 23.67 -7.98 23.34 -9 23 C-7.75 21.5 -7.75 21.5 -6 20 C-4.68 20 -3.36 20 -2 20 C-1.8453125 19.13375 -1.8453125 19.13375 -1.6875 18.25 C-1 16 -1 16 0.5 14.0625 C2.21715068 11.70141782 2.60234816 9.86309322 3 7 C2.34 7 1.68 7 1 7 C0.67 4.69 0.34 2.38 0 0 Z " fill="#292E4C" transform="translate(664,50)"/>
<path d="M0 0 C0.33 0 0.66 0 1 0 C1 1.98 1 3.96 1 6 C-8.94814966 7.25755391 -19.09491126 7.84280721 -29 6 C-29 5.67 -29 5.34 -29 5 C-22.33651376 4.00238092 -15.99052451 3.98226278 -9.27148438 4.30273438 C-6.67411026 4.40517837 -6.67411026 4.40517837 -3 4 C-0.97294916 2.14156332 -0.97294916 2.14156332 0 0 Z " fill="#353946" transform="translate(660,178)"/>
<path d="M0 0 C0.33 0 0.66 0 1 0 C1.08733513 3.08315385 1.14050127 6.16598827 1.1875 9.25 C1.21263672 10.12269531 1.23777344 10.99539062 1.26367188 11.89453125 C1.33710838 18.3079856 1.33710838 18.3079856 -0.2578125 21.58203125 C-2.35540073 23.28926113 -3.38029154 23.51270211 -6.0625 23.4375 C-7.361875 23.293125 -8.66125 23.14875 -10 23 C-10.66 22.01 -11.32 21.02 -12 20 C-9.03 20 -6.06 20 -3 20 C-3 19.34 -3 18.68 -3 18 C-2.01 18 -1.02 18 0 18 C0 12.06 0 6.12 0 0 Z " fill="#DDCA71" transform="translate(375,146)"/>
<path d="M0 0 C2.1796875 1.41015625 2.1796875 1.41015625 4 4 C4.49160694 7.26340922 4.37637541 10.45937887 4.25 13.75 C4.23195313 14.63816406 4.21390625 15.52632812 4.1953125 16.44140625 C4.14827374 18.62870848 4.08257009 20.81379816 4 23 C3.67 23 3.34 23 3 23 C2.93941406 21.71222656 2.87882812 20.42445313 2.81640625 19.09765625 C2.73201753 17.41925841 2.6473687 15.74087364 2.5625 14.0625 C2.52318359 13.21236328 2.48386719 12.36222656 2.44335938 11.48632812 C2.38051758 10.27299805 2.38051758 10.27299805 2.31640625 9.03515625 C2.27974854 8.2862915 2.24309082 7.53742676 2.20532227 6.76586914 C2.18228937 4.97538674 2.18228937 4.97538674 1 4 C-0.68608966 3.92794489 -2.37500659 3.91613932 -4.0625 3.9375 C-4.98160156 3.94652344 -5.90070313 3.95554687 -6.84765625 3.96484375 C-7.55792969 3.97644531 -8.26820313 3.98804687 -9 4 C-8.67 3.01 -8.34 2.02 -8 1 C-5.15916359 -0.42041821 -3.14522722 -0.31452272 0 0 Z " fill="#DACC6F" transform="translate(372,108)"/>
<path d="M0 0 C0.66 0.33 1.32 0.66 2 1 C1.79375 2.093125 1.5875 3.18625 1.375 4.3125 C0.59653475 8.0838401 0.59653475 8.0838401 3 11 C5.02276681 11.50621513 5.02276681 11.50621513 7.3515625 11.51171875 C8.20234375 11.54716797 9.053125 11.58261719 9.9296875 11.61914062 C10.81914062 11.64169922 11.70859375 11.66425781 12.625 11.6875 C13.97078125 11.73874023 13.97078125 11.73874023 15.34375 11.79101562 C17.56237538 11.87362402 19.7805994 11.94272719 22 12 C22 12.33 22 12.66 22 13 C18.75017 13.08728882 15.5006425 13.14048658 12.25 13.1875 C10.86941406 13.22520508 10.86941406 13.22520508 9.4609375 13.26367188 C8.57148438 13.27333984 7.68203125 13.28300781 6.765625 13.29296875 C5.94868164 13.3086792 5.13173828 13.32438965 4.29003906 13.34057617 C1.44800926 12.91790756 0.08496619 11.94345265 -2 10 C-2.52799676 7.23857697 -2.18598981 4.83634455 -2 2 C-1.34 2 -0.68 2 0 2 C0 1.34 0 0.68 0 0 Z " fill="#CABC75" transform="translate(340,133)"/>
<path d="M0 0 C0.66 0.33 1.32 0.66 2 1 C2 4.3 2 7.6 2 11 C0.68 11 -0.64 11 -2 11 C-3.39935013 8.20129973 -3.25265405 6.09501208 -3 3 C-1.5 1.125 -1.5 1.125 0 0 Z " fill="#7082C0" transform="translate(324,112)"/>
<path d="M0 0 C0.33 0.99 0.66 1.98 1 3 C-6.12950371 4.90120099 -12.63740707 5.22424141 -20 5 C-20.33 4.34 -20.66 3.68 -21 3 C-19.96359375 2.95101562 -18.9271875 2.90203125 -17.859375 2.8515625 C-16.48955792 2.77650403 -15.11976752 2.70095753 -13.75 2.625 C-13.06808594 2.5940625 -12.38617188 2.563125 -11.68359375 2.53125 C-7.50124189 2.28761785 -3.86242557 0 0 0 Z " fill="#838EBE" transform="translate(383,187)"/>
<path d="M0 0 C2.40672854 3.61009281 2.29795107 6.26975281 2.25 10.4375 C2.25773437 12.41556641 2.25773437 12.41556641 2.265625 14.43359375 C2.02707499 17.6364784 1.7088407 19.34858447 0 22 C-0.66 21.67 -1.32 21.34 -2 21 C-1.84660156 20.34644531 -1.69320313 19.69289063 -1.53515625 19.01953125 C-0.86620406 15.24507841 -0.64592703 11.51094004 -0.4375 7.6875 C-0.39431641 6.94693359 -0.35113281 6.20636719 -0.30664062 5.44335938 C-0.20129568 3.62908536 -0.10021684 1.8145645 0 0 Z " fill="#3D4467" transform="translate(312,96)"/>
<path d="M0 0 C1.67542976 0.28604898 3.34385343 0.61781233 5 1 C3.02 1.99 3.02 1.99 1 3 C0.67 12.9 0.34 22.8 0 33 C-0.33 33 -0.66 33 -1 33 C-1.02465392 28.46102295 -1.04283789 23.92208457 -1.05493164 19.38305664 C-1.0599714 17.83780234 -1.0668032 16.29255284 -1.07543945 14.74731445 C-1.08752076 12.53074971 -1.09323173 10.31424782 -1.09765625 8.09765625 C-1.10281754 7.4028566 -1.10797882 6.70805695 -1.11329651 5.99220276 C-1.11349277 4.3277067 -1.06189129 2.66334501 -1 1 C-0.67 0.67 -0.34 0.34 0 0 Z " fill="#9A9A9C" transform="translate(631,91)"/>
<path d="M0 0 C1.09570312 0.00902344 2.19140625 0.01804687 3.3203125 0.02734375 C4.16335938 0.03894531 5.00640625 0.05054687 5.875 0.0625 C5.875 2.0425 5.875 4.0225 5.875 6.0625 C5.33875 5.5675 4.8025 5.0725 4.25 4.5625 C1.23748963 2.65986187 -0.617309 2.76397311 -4.125 3.0625 C-5.115 3.3925 -6.105 3.7225 -7.125 4.0625 C-7.455 3.0725 -7.785 2.0825 -8.125 1.0625 C-5.36047967 -0.31976016 -3.0788637 -0.03275387 0 0 Z " fill="#707BA8" transform="translate(370.125,105.9375)"/>
<path d="M0 0 C9.57 0 19.14 0 29 0 C29 0.33 29 0.66 29 1 C28.19780029 1.02505615 27.39560059 1.0501123 26.5690918 1.07592773 C22.94172926 1.19182043 19.31463083 1.31457751 15.6875 1.4375 C14.42486328 1.47681641 13.16222656 1.51613281 11.86132812 1.55664062 C10.04858398 1.61948242 10.04858398 1.61948242 8.19921875 1.68359375 C6.52605591 1.73858032 6.52605591 1.73858032 4.8190918 1.79467773 C1.92126429 1.88931209 1.92126429 1.88931209 -1 3 C-0.67 2.01 -0.34 1.02 0 0 Z " fill="#5B5C5E" transform="translate(851,152)"/>
<path d="M0 0 C0.66 0 1.32 0 2 0 C3 3 3 3 1.8203125 5.48046875 C0.98113281 6.82044922 0.98113281 6.82044922 0.125 8.1875 C-0.42929687 9.08855469 -0.98359375 9.98960938 -1.5546875 10.91796875 C-2.03164063 11.60503906 -2.50859375 12.29210937 -3 13 C-3.33 13 -3.66 13 -4 13 C-4.625 9.625 -4.625 9.625 -5 6 C-4.34 5.34 -3.68 4.68 -3 4 C-2.01 4.33 -1.02 4.66 0 5 C-0.33 4.01 -0.66 3.02 -1 2 C-0.67 1.34 -0.34 0.68 0 0 Z " fill="#8698C7" transform="translate(330,107)"/>
<path d="M0 0 C0.66 0.99 1.32 1.98 2 3 C0.02 6.96 -1.96 10.92 -4 15 C-5.16278786 10.34884858 -4.59545159 9.41507155 -2.5625 5.25 C-2.08941406 4.26515625 -1.61632812 3.2803125 -1.12890625 2.265625 C-0.75636719 1.51796875 -0.38382813 0.7703125 0 0 Z " fill="#232D41" transform="translate(236,153)"/>
<path d="M0 0 C3.73639216 1.24546405 4.18756513 2.63404953 6 6 C4.375 6.8125 4.375 6.8125 2 7 C-0.24609835 5.53181864 -2.02378677 3.84147142 -4 2 C-3.34 1.67 -2.68 1.34 -2 1 C-1.34 1.33 -0.68 1.66 0 2 C0 1.34 0 0.68 0 0 Z " fill="#767FBC" transform="translate(338,177)"/>
<path d="M0 0 C0.66 0.33 1.32 0.66 2 1 C1.0479279 2.00596297 0.08812654 3.00461563 -0.875 4 C-1.40867187 4.556875 -1.94234375 5.11375 -2.4921875 5.6875 C-4 7 -4 7 -6 7 C-6.061875 7.763125 -6.12375 8.52625 -6.1875 9.3125 C-7 12 -7 12 -9.5625 13.8125 C-10.366875 14.204375 -11.17125 14.59625 -12 15 C-9.68568922 8.24992688 -5.43678429 4.32471477 0 0 Z " fill="#565656" transform="translate(446,98)"/>
<path d="M0 0 C-0.33 1.32 -0.66 2.64 -1 4 C-1.66 4 -2.32 4 -3 4 C-3 4.99 -3 5.98 -3 7 C-3.66 7 -4.32 7 -5 7 C-5.33 8.32 -5.66 9.64 -6 11 C-6 10.34 -6 9.68 -6 9 C-6.66 9 -7.32 9 -8 9 C-6.53333333 3.5 -6.53333333 3.5 -4 1.125 C-2 0 -2 0 0 0 Z " fill="#6478BA" transform="translate(338,98)"/>
<path d="M0 0 C3.27742098 3.10026309 5.93104837 5.97098894 8 10 C8 10.66 8 11.32 8 12 C7.01 11.67 6.02 11.34 5 11 C5 10.34 5 9.68 5 9 C4.34 9 3.68 9 3 9 C3 7.35 3 5.7 3 4 C2.01 4 1.02 4 0 4 C0 2.68 0 1.36 0 0 Z " fill="#1C2039" transform="translate(872,107)"/>
<path d="M0 0 C0.66 0.33 1.32 0.66 2 1 C0.73755365 2.65227538 -0.53525235 4.29663951 -1.8125 5.9375 C-2.87404297 7.31228516 -2.87404297 7.31228516 -3.95703125 8.71484375 C-6 11 -6 11 -9 12 C-7.54718935 6.67302761 -3.91888622 3.63597198 0 0 Z " fill="#505255" transform="translate(590,95)"/>
<path d="M0 0 C-1.5830577 4.2742558 -4.50568404 6.26531794 -8 9 C-8 6 -8 6 -7 4 C-6.34 4 -5.68 4 -5 4 C-5 3.01 -5 2.02 -5 1 C-3 0 -3 0 0 0 Z " fill="#6B76AD" transform="translate(410,171)"/>
<path d="M0 0 C0.33 0 0.66 0 1 0 C1.22262303 6.7281627 0.95021536 12.53991163 -1 19 C-1.33 19 -1.66 19 -2 19 C-2.02688151 17.35425434 -2.04634123 15.70838587 -2.0625 14.0625 C-2.07410156 13.14597656 -2.08570312 12.22945312 -2.09765625 11.28515625 C-2 9 -2 9 -1 8 C-0.76924918 6.65252916 -0.58846937 5.29622435 -0.4375 3.9375 C-0.293125 2.638125 -0.14875 1.33875 0 0 Z " fill="#252C43" transform="translate(81,112)"/>
<path d="M0 0 C0.66 0.33 1.32 0.66 2 1 C-1 4 -4 7 -7 10 C-7.66 9.67 -8.32 9.34 -9 9 C-7.87895467 7.68412059 -6.75303035 6.37239647 -5.625 5.0625 C-4.99851562 4.33160156 -4.37203125 3.60070312 -3.7265625 2.84765625 C-2 1 -2 1 0 0 Z " fill="#525455" transform="translate(519,95)"/>
<path d="M0 0 C1 3 1 3 0.07421875 5.2265625 C-0.38339844 6.01804688 -0.84101562 6.80953125 -1.3125 7.625 C-1.98732422 8.81996094 -1.98732422 8.81996094 -2.67578125 10.0390625 C-4 12 -4 12 -6 13 C-5.67 11.35 -5.34 9.7 -5 8 C-4.34 8 -3.68 8 -3 8 C-2.67 6.02 -2.34 4.04 -2 2 C-1.34 2 -0.68 2 0 2 C0 1.34 0 0.68 0 0 Z " fill="#282D4A" transform="translate(78,131)"/>
<path d="M0 0 C2.12493141 -0.02693575 4.24995912 -0.04636628 6.375 -0.0625 C7.55835938 -0.07410156 8.74171875 -0.08570312 9.9609375 -0.09765625 C13 0 13 0 15 1 C15 1.66 15 2.32 15 3 C14.19175781 2.98839844 13.38351562 2.97679688 12.55078125 2.96484375 C10.94783203 2.95130859 10.94783203 2.95130859 9.3125 2.9375 C8.25675781 2.92589844 7.20101563 2.91429688 6.11328125 2.90234375 C3.27589738 2.99134575 0.7561081 3.35060162 -2 4 C-1.34 2.68 -0.68 1.36 0 0 Z " fill="#22263B" transform="translate(474,115)"/>
<path d="M0 0 C0.33 0 0.66 0 1 0 C1 2.97 1 5.94 1 9 C0.34 9 -0.32 9 -1 9 C-1 11.97 -1 14.94 -1 18 C-1.33 18 -1.66 18 -2 18 C-2.20852314 11.59370576 -2.1583195 6.07027358 0 0 Z " fill="#6E80B4" transform="translate(328,123)"/>
<path d="M0 0 C0.99 0.33 1.98 0.66 3 1 C0.69 4.3 -1.62 7.6 -4 11 C-4.33 9.68 -4.66 8.36 -5 7 C-4.34 7 -3.68 7 -3 7 C-2.87625 6.401875 -2.7525 5.80375 -2.625 5.1875 C-2 3 -2 3 0 0 Z " fill="#242942" transform="translate(756,109)"/>
<path d="M0 0 C0.66 0 1.32 0 2 0 C0.90648447 3.17119503 -0.0126988 4.00783543 -2.9375 5.8125 C-6 7 -6 7 -9 6 C-8.34 6 -7.68 6 -7 6 C-6.67 5.01 -6.34 4.02 -6 3 C-4.02 2.67 -2.04 2.34 0 2 C0 1.34 0 0.68 0 0 Z " fill="#1B1E36" transform="translate(759,175)"/>
<path d="M0 0 C0.99 0.33 1.98 0.66 3 1 C2.02501855 2.5027237 1.04490611 4.00211963 0.0625 5.5 C-0.48277344 6.3353125 -1.02804687 7.170625 -1.58984375 8.03125 C-2.05519531 8.6809375 -2.52054688 9.330625 -3 10 C-3.33 10 -3.66 10 -4 10 C-4 8.02 -4 6.04 -4 4 C-2.68 3.67 -1.36 3.34 0 3 C0 2.01 0 1.02 0 0 Z " fill="#242741" transform="translate(732,145)"/>
<path d="M0 0 C1.17539996 0.92652701 2.34010577 1.86663387 3.5 2.8125 C4.1496875 3.33457031 4.799375 3.85664062 5.46875 4.39453125 C7 6 7 6 7 9 C5.68 8.34 4.36 7.68 3 7 C3 6.34 3 5.68 3 5 C2.34 5 1.68 5 1 5 C0.67 3.35 0.34 1.7 0 0 Z " fill="#1D2236" transform="translate(224,103)"/>
<path d="M0 0 C1.98 0 3.96 0 6 0 C5.67 1.65 5.34 3.3 5 5 C3.68 4.67 2.36 4.34 1 4 C0.67 2.68 0.34 1.36 0 0 Z " fill="#637AB7" transform="translate(360,87)"/>
<path d="M0 0 C3.72114571 2.31537955 6.61229661 4.28579473 9 8 C7.35 7.67 5.7 7.34 4 7 C4 6.01 4 5.02 4 4 C2.68 3.67 1.36 3.34 0 3 C0 2.01 0 1.02 0 0 Z " fill="#1F2234" transform="translate(644,96)"/>
<path d="M0 0 C0.66 0 1.32 0 2 0 C2.66 1.65 3.32 3.3 4 5 C1.69 5.66 -0.62 6.32 -3 7 C-2.01 4.69 -1.02 2.38 0 0 Z " fill="#6C7EB7" transform="translate(349,90)"/>
<path d="M0 0 C0.99 1.485 0.99 1.485 2 3 C2.87072072 4.23220174 3.74584102 5.46130459 4.625 6.6875 C5.07101563 7.31011719 5.51703125 7.93273437 5.9765625 8.57421875 C6.31429687 9.04472656 6.65203125 9.51523438 7 10 C6.01 10.495 6.01 10.495 5 11 C5 10.34 5 9.68 5 9 C3.68 8.67 2.36 8.34 1 8 C0.67 5.36 0.34 2.72 0 0 Z " fill="#242944" transform="translate(171,152)"/>
<path d="M0 0 C0 0.99 0 1.98 0 3 C-4.455 3.495 -4.455 3.495 -9 4 C-8.67 3.01 -8.34 2.02 -8 1 C-5.29120665 -0.35439668 -2.99066732 -0.06501451 0 0 Z " fill="#D1C269" transform="translate(372,108)"/>
<path d="M0 0 C-1.28650706 0.69710731 -2.57940665 1.38242876 -3.875 2.0625 C-4.95394531 2.63677734 -4.95394531 2.63677734 -6.0546875 3.22265625 C-6.69664062 3.47917969 -7.33859375 3.73570312 -8 4 C-8.66 3.67 -9.32 3.34 -10 3 C-8 0 -8 0 -6.125 -0.75 C-3.79860996 -1.02369295 -2.2373866 -0.61785571 0 0 Z " fill="#1E2246" transform="translate(220,180)"/>
<path d="M0 0 C0.99 0.33 1.98 0.66 3 1 C3 2.98 3 4.96 3 7 C2.01 7 1.02 7 0 7 C0 4.69 0 2.38 0 0 Z " fill="#EEF6FD" transform="translate(322,133)"/>
<path d="M0 0 C1.98 0.66 3.96 1.32 6 2 C6 2.99 6 3.98 6 5 C3.69 4.34 1.38 3.68 -1 3 C-0.67 2.01 -0.34 1.02 0 0 Z " fill="#282A37" transform="translate(857,96)"/>
<path d="M0 0 C4.455 2.97 4.455 2.97 9 6 C7.68 6.33 6.36 6.66 5 7 C2.25 4.6875 2.25 4.6875 0 2 C0 1.34 0 0.68 0 0 Z " fill="#22263E" transform="translate(465,154)"/>
<path d="M0 0 C2.31 0 4.62 0 7 0 C7 0.99 7 1.98 7 3 C4.69 3 2.38 3 0 3 C0 2.01 0 1.02 0 0 Z " fill="#E8F1FC" transform="translate(364,92)"/>
<path d="M0 0 C0.33 1.32 0.66 2.64 1 4 C-1.31 5.65 -3.62 7.3 -6 9 C-4.68775452 5.06326356 -3.08089673 2.77280706 0 0 Z " fill="#575757" transform="translate(275,64)"/>
<path d="M0 0 C0.33 0.66 0.66 1.32 1 2 C0.06421005 4.35981813 -0.93347808 6.69631264 -2 9 C-2.66 9 -3.32 9 -4 9 C-3.46930939 5.17902761 -2.50298434 2.93828597 0 0 Z " fill="#EAF2FA" transform="translate(329,119)"/>
<path d="M0 0 C2.04119788 1.61594832 4.04072937 3.2856382 6 5 C6 5.66 6 6.32 6 7 C4.35 6.67 2.7 6.34 1 6 C0.67 4.02 0.34 2.04 0 0 Z " fill="#2F334D" transform="translate(575,102)"/>
<path d="M0 0 C1.65 1.65 3.3 3.3 5 5 C2.69 5 0.38 5 -2 5 C-1.34 3.35 -0.68 1.7 0 0 Z " fill="#8395C9" transform="translate(404,99)"/>
<path d="M0 0 C1.67542976 0.28604898 3.34385343 0.61781233 5 1 C4.360625 1.165 3.72125 1.33 3.0625 1.5 C0.83880759 2.781786 0.83880759 2.781786 0.51171875 4.9140625 C0.2724022 6.93575155 0.13106972 8.96841939 0 11 C-0.33 11 -0.66 11 -1 11 C-1.02688151 9.35425434 -1.04634123 7.70838587 -1.0625 6.0625 C-1.07410156 5.14597656 -1.08570313 4.22945313 -1.09765625 3.28515625 C-1 1 -1 1 0 0 Z " fill="#888A88" transform="translate(631,91)"/>
<path d="M0 0 C2 1 2 1 3 3 C0.35261084 4.4606285 -0.89448334 5 -4 5 C-4 4.34 -4 3.68 -4 3 C-3.34 3 -2.68 3 -2 3 C-2 2.34 -2 1.68 -2 1 C-1.34 0.67 -0.68 0.34 0 0 Z " fill="#F4F5FE" transform="translate(351,95)"/>
<path d="M0 0 C1.98 0.495 1.98 0.495 4 1 C2.68 3.31 1.36 5.62 0 8 C-0.33 8 -0.66 8 -1 8 C-1.08226668 4.95613276 -0.97608217 2.92824652 0 0 Z " fill="#1E2349" transform="translate(587,124)"/>
</svg>
